# xmcd
# 
# Track frame offsets:
#     150
#     12191
#     25152
#     37302
#     49108
#     60998
#     73292
#     84994
#     98624
#     110119
#     121929
#     134391
#     145502
#     166630
#     175644
#     188733
#     205598
#     219913
# 
# Disc length: 3076
# 
# Revision: 2
# Processed by: cddbd v1.5.2PL0 Copyright (c) Steve Scherf et al.
# Submitted via: fre:ac v1.0.31
# 
DISCID=eb0c0212
DTITLE=Bob Wills and His Texas Playboys - 1932-1947 [CD2]
DYEAR=0
DGENRE=Country
TTITLE0=Beaumont Rag
TTITLE1=Corrine Corrina
TTITLE2=Time Changes Everything
TTITLE3=New San Antonio Rose
TTITLE4=Twin Guitar Special
TTITLE5=Take Me Back To Tulsa
TTITLE6=Little Liza Jane
TTITLE7=My Little Cherokee Maiden
TTITLE8=Home In San Antone
TTITLE9=Texas Playboy Rag
TTITLE10=Stay A Little Longer
TTITLE11=New Roly Poly
TTITLE12=Bring It On Down To My House
TTITLE13=Ida Red
TTITLE14=Milk Cow Blues
TTITLE15=Swinging The Blues
TTITLE16=Take The 'A' Train
TTITLE17=Cowboy Stomp
EXTD=
EXTT0=
EXTT1=
EXTT2=
EXTT3=
EXTT4=
EXTT5=
EXTT6=
EXTT7=
EXTT8=
EXTT9=
EXTT10=
EXTT11=
EXTT12=
EXTT13=
EXTT14=
EXTT15=
EXTT16=
EXTT17=
PLAYORDER=
